# xmcd
#
# Track frame offsets: 
#        150
#        16045
#        33674
#        50369
#        63339
#        82397
#        101969
#        118509
#        134967
#        146995
#        161518
#        175196
#
# Disc length: 2593 seconds
#
# Revision: 5
# Processed by: cddbd v1.5.1PL2 Copyright (c) Steve Scherf et al.
# Submitted via: ExactAudioCopy v0.95b3
#
DISCID=b20a1f0c
DTITLE=Rogers, Kenny - Lady
DYEAR=1900
DGENRE=Country
TTITLE0=The Gambler
TTITLE1=Lady
TTITLE2=Don't Fall In Love With A Dreamer
TTITLE3=Ruby Don't Take Your Love To Town
TTITLE4=She Believes In Me
TTITLE5=Coward Of The County
TTITLE6=Lucille
TTITLE7=You Decorated My Life
TTITLE8=Reuben James
TTITLE9=Love The World Away
TTITLE10=Every Time Two Fools Collide
TTITLE11=Long Arm Of The Law
EXTD=
EXTT0=
EXTT1=
EXTT2=
EXTT3=
EXTT4=
EXTT5=
EXTT6=
EXTT7=
EXTT8=
EXTT9=
EXTT10=
EXTT11=
PLAYORDER=
